<?xml version="1.0" encoding="utf-8"?>
<!-- Generator: Adobe Illustrator 16.0.0, SVG Export Plug-In . SVG Version: 6.00 Build 0)  -->
<!DOCTYPE svg PUBLIC "-//W3C//DTD SVG 1.1//EN" "http://www.w3.org/Graphics/SVG/1.1/DTD/svg11.dtd">
<svg version="1.1" id="Layer_1" xmlns="http://www.w3.org/2000/svg" xmlns:xlink="http://www.w3.org/1999/xlink" x="0px" y="0px"
	 width="128px" height="128px" viewBox="0 0 128 128" enable-background="new 0 0 128 128" xml:space="preserve">
<defs>
	<filter id="Adobe_OpacityMaskFilter" filterUnits="userSpaceOnUse" x="0" y="0" width="128" height="128">
		<feColorMatrix  type="matrix" values="1 0 0 0 0  0 1 0 0 0  0 0 1 0 0  0 0 0 1 0"/>
	</filter>
</defs>
<mask maskUnits="userSpaceOnUse" x="0" y="0" width="128" height="128" id="SVGID_1_">
	<g filter="url(#Adobe_OpacityMaskFilter)">
		<g transform="matrix(18.68858,0,0,18.68858,-5275.21001,-2214.09999)">
			<path fill="#FFFFFF" stroke="#000000" d="M286.39,118.785c-2.209-0.887-4.591,1.803-3.827,3.912
				c0.968-0.562,1.976-0.69,2.508-0.159c0.532,0.532,0.404,1.539-0.159,2.508c2.109,0.764,4.799-1.618,3.912-3.827
				c-1.027,0.601-1.77,0.493-2.348-0.086C285.9,120.555,285.79,119.811,286.39,118.785L286.39,118.785z"/>
			<g transform="matrix(.6435,.6435,-.87251,.87251,219.40464,-172.19756)">
				<path fill="none" stroke="#000000" stroke-width="0.9437" d="M278.648,128.875c-1.4,0.813-1.548,2.373,0.047,3.281"/>
				<path fill="none" stroke="#000000" stroke-width="0.9437" d="M281.423,128.875c1.4,0.813,1.548,2.373-0.047,3.281"/>
			</g>
			<path fill="#FFFFFF" stroke="#000000" d="M286.712,120.299l-4.299,4.299v0.608h0.56l4.323-4.323L286.712,120.299L286.712,120.299
				z"/>
			<path fill="#FFFFFF" stroke="#000000" d="M286.215,120.607l0.773,0.773l-1.773,1.773l-0.773-0.773L286.215,120.607
				L286.215,120.607z"/>
		</g>
	</g>
</mask>
<path mask="url(#SVGID_1_)" fill="#FFFFFF" d="M0,0h128v128H0V0z"/>
</svg>
